<mxfile host="65bd71144e">
    <diagram id="ygDnsc0bAxGJzPIS6mEg" name="Page-1">
        <mxGraphModel dx="4300" dy="2037" grid="1" gridSize="10" guides="1" tooltips="1" connect="1" arrows="1" fold="1" page="1" pageScale="1" pageWidth="2000" pageHeight="2300" math="0" shadow="0">
            <root>
                <mxCell id="0"/>
                <mxCell id="1" parent="0"/>
                <mxCell id="7" value="intf_test" style="shape=document;whiteSpace=wrap;html=1;boundedLbl=1;fontSize=40;" parent="1" vertex="1">
                    <mxGeometry x="190" y="230" width="300" height="220" as="geometry"/>
                </mxCell>
                <mxCell id="8" value="intf_vseq" style="rounded=0;whiteSpace=wrap;html=1;fontSize=40;" parent="1" vertex="1">
                    <mxGeometry x="770" y="225" width="390" height="230" as="geometry"/>
                </mxCell>
                <mxCell id="9" value="intf_seq" style="shape=hexagon;perimeter=hexagonPerimeter2;whiteSpace=wrap;html=1;fixedSize=1;fontSize=40;" parent="1" vertex="1">
                    <mxGeometry x="1390" y="225" width="490" height="230" as="geometry"/>
                </mxCell>
                <mxCell id="10" value="" style="shape=flexArrow;endArrow=classic;html=1;exitX=1;exitY=0.5;exitDx=0;exitDy=0;entryX=0;entryY=0.5;entryDx=0;entryDy=0;fontSize=40;" parent="1" source="7" target="8" edge="1">
                    <mxGeometry width="50" height="50" relative="1" as="geometry">
                        <mxPoint x="1030" y="760" as="sourcePoint"/>
                        <mxPoint x="1080" y="710" as="targetPoint"/>
                    </mxGeometry>
                </mxCell>
                <mxCell id="11" value="" style="shape=flexArrow;endArrow=classic;html=1;exitX=1;exitY=0.5;exitDx=0;exitDy=0;entryX=0;entryY=0.5;entryDx=0;entryDy=0;fontSize=40;" parent="1" source="8" target="9" edge="1">
                    <mxGeometry width="50" height="50" relative="1" as="geometry">
                        <mxPoint x="1240" y="580" as="sourcePoint"/>
                        <mxPoint x="1520" y="580" as="targetPoint"/>
                    </mxGeometry>
                </mxCell>
                <mxCell id="12" value="reset_test" style="shape=document;whiteSpace=wrap;html=1;boundedLbl=1;fontSize=40;" parent="1" vertex="1">
                    <mxGeometry x="170" y="745" width="300" height="220" as="geometry"/>
                </mxCell>
                <mxCell id="13" value="reset_vseq" style="rounded=0;whiteSpace=wrap;html=1;fontSize=40;" parent="1" vertex="1">
                    <mxGeometry x="750" y="740" width="390" height="230" as="geometry"/>
                </mxCell>
                <mxCell id="14" value="uvm_reg_hw_reset_seq" style="shape=hexagon;perimeter=hexagonPerimeter2;whiteSpace=wrap;html=1;fixedSize=1;fontSize=40;" parent="1" vertex="1">
                    <mxGeometry x="1370" y="740" width="490" height="230" as="geometry"/>
                </mxCell>
                <mxCell id="15" value="" style="shape=flexArrow;endArrow=classic;html=1;exitX=1;exitY=0.5;exitDx=0;exitDy=0;entryX=0;entryY=0.5;entryDx=0;entryDy=0;fontSize=40;" parent="1" source="12" target="13" edge="1">
                    <mxGeometry width="50" height="50" relative="1" as="geometry">
                        <mxPoint x="1010" y="1275" as="sourcePoint"/>
                        <mxPoint x="1060" y="1225" as="targetPoint"/>
                    </mxGeometry>
                </mxCell>
                <mxCell id="16" value="" style="shape=flexArrow;endArrow=classic;html=1;exitX=1;exitY=0.5;exitDx=0;exitDy=0;entryX=0;entryY=0.5;entryDx=0;entryDy=0;fontSize=40;" parent="1" source="13" target="14" edge="1">
                    <mxGeometry width="50" height="50" relative="1" as="geometry">
                        <mxPoint x="1220" y="1095" as="sourcePoint"/>
                        <mxPoint x="1500" y="1095" as="targetPoint"/>
                    </mxGeometry>
                </mxCell>
                <mxCell id="17" value="reg_rw_test" style="shape=document;whiteSpace=wrap;html=1;boundedLbl=1;fontSize=40;" parent="1" vertex="1">
                    <mxGeometry x="140" y="1335" width="300" height="220" as="geometry"/>
                </mxCell>
                <mxCell id="18" value="reg_rw_vseq" style="rounded=0;whiteSpace=wrap;html=1;fontSize=40;" parent="1" vertex="1">
                    <mxGeometry x="720" y="1330" width="390" height="230" as="geometry"/>
                </mxCell>
                <mxCell id="19" value="reg_rw_seq" style="shape=hexagon;perimeter=hexagonPerimeter2;whiteSpace=wrap;html=1;fixedSize=1;fontSize=40;" parent="1" vertex="1">
                    <mxGeometry x="1340" y="1330" width="490" height="230" as="geometry"/>
                </mxCell>
                <mxCell id="20" value="" style="shape=flexArrow;endArrow=classic;html=1;exitX=1;exitY=0.5;exitDx=0;exitDy=0;entryX=0;entryY=0.5;entryDx=0;entryDy=0;fontSize=40;" parent="1" source="17" target="18" edge="1">
                    <mxGeometry width="50" height="50" relative="1" as="geometry">
                        <mxPoint x="980" y="1865" as="sourcePoint"/>
                        <mxPoint x="1030" y="1815" as="targetPoint"/>
                    </mxGeometry>
                </mxCell>
                <mxCell id="21" value="" style="shape=flexArrow;endArrow=classic;html=1;exitX=1;exitY=0.5;exitDx=0;exitDy=0;entryX=0;entryY=0.5;entryDx=0;entryDy=0;fontSize=40;" parent="1" source="18" target="19" edge="1">
                    <mxGeometry width="50" height="50" relative="1" as="geometry">
                        <mxPoint x="1190" y="1685" as="sourcePoint"/>
                        <mxPoint x="1470" y="1685" as="targetPoint"/>
                    </mxGeometry>
                </mxCell>
                <mxCell id="22" value="" style="shape=document;whiteSpace=wrap;html=1;boundedLbl=1;fontSize=40;" parent="1" vertex="1">
                    <mxGeometry x="140" y="1875" width="300" height="220" as="geometry"/>
                </mxCell>
                <mxCell id="23" value="" style="rounded=0;whiteSpace=wrap;html=1;fontSize=40;" parent="1" vertex="1">
                    <mxGeometry x="720" y="1870" width="390" height="230" as="geometry"/>
                </mxCell>
                <mxCell id="24" value="" style="shape=hexagon;perimeter=hexagonPerimeter2;whiteSpace=wrap;html=1;fixedSize=1;fontSize=40;" parent="1" vertex="1">
                    <mxGeometry x="1340" y="1870" width="490" height="230" as="geometry"/>
                </mxCell>
                <mxCell id="25" value="" style="shape=flexArrow;endArrow=classic;html=1;exitX=1;exitY=0.5;exitDx=0;exitDy=0;entryX=0;entryY=0.5;entryDx=0;entryDy=0;fontSize=40;" parent="1" source="22" target="23" edge="1">
                    <mxGeometry width="50" height="50" relative="1" as="geometry">
                        <mxPoint x="980" y="2405" as="sourcePoint"/>
                        <mxPoint x="1030" y="2355" as="targetPoint"/>
                    </mxGeometry>
                </mxCell>
                <mxCell id="26" value="" style="shape=flexArrow;endArrow=classic;html=1;exitX=1;exitY=0.5;exitDx=0;exitDy=0;entryX=0;entryY=0.5;entryDx=0;entryDy=0;fontSize=40;" parent="1" source="23" target="24" edge="1">
                    <mxGeometry width="50" height="50" relative="1" as="geometry">
                        <mxPoint x="1190" y="2225" as="sourcePoint"/>
                        <mxPoint x="1470" y="2225" as="targetPoint"/>
                    </mxGeometry>
                </mxCell>
            </root>
        </mxGraphModel>
    </diagram>
</mxfile>